<svg width="616" height="283" viewBox="0 0 616 283" fill="none" xmlns="http://www.w3.org/2000/svg">
<path d="M164.781 260.625H169.281V224.594H164.781V218.625H179.781L194.812 259.531L210.031 218.625H224.25V224.594H219.781V260.625H224.25V266H208.875V260.625H213.938V224.25L197.375 266H192.062L175.281 224.156V260.625H180.156V266H164.781V260.625ZM261.25 260.625H265.188L261.438 249.875H243.219L239.562 260.625H244.438V266H229.062V260.625H233.188L247.938 218.625H257.156L271.875 260.625H276.625V266H261.25V260.625ZM245 244.688H259.625L252.25 223.5L245 244.688ZM281.406 218.625H301.125C303.229 218.625 305.167 218.906 306.938 219.469C308.729 220.01 310.271 220.823 311.562 221.906C312.875 222.969 313.896 224.302 314.625 225.906C315.354 227.51 315.719 229.354 315.719 231.438C315.719 232.625 315.5 233.802 315.062 234.969C314.646 236.115 314.052 237.188 313.281 238.188C312.531 239.167 311.635 240.042 310.594 240.812C309.552 241.583 308.417 242.177 307.188 242.594C307.708 242.823 308.229 243.156 308.75 243.594C309.292 244.01 309.792 244.531 310.25 245.156C310.729 245.76 311.156 246.458 311.531 247.25C311.927 248.021 312.24 248.854 312.469 249.75L315.094 260.062H319.188L319.25 266H310.031L306.5 251.594C305.854 249.01 304.865 247.115 303.531 245.906C302.219 244.677 300.417 244.062 298.125 244.062H292.031V260.625H296.781V266H281.406V260.625H285.906V224.031H281.406V218.625ZM292.031 224.031V238.938H301.125C302.312 238.938 303.396 238.781 304.375 238.469C305.375 238.156 306.229 237.688 306.938 237.062C307.667 236.438 308.229 235.667 308.625 234.75C309.042 233.812 309.25 232.729 309.25 231.5C309.25 229.146 308.542 227.312 307.125 226C305.708 224.688 303.458 224.031 300.375 224.031H292.031ZM326.969 218.625H342.094V224.031H337.594V260.625H342.094V266H326.969V260.625H331.469V224.031H326.969V218.625ZM379.062 260.625H383L379.25 249.875H361.031L357.375 260.625H362.25V266H346.875V260.625H351L365.75 218.625H374.969L389.688 260.625H394.438V266H379.062V260.625ZM362.812 244.688H377.438L370.062 223.5L362.812 244.688ZM428.531 218.625H443.906V224.031H439.875V266H431.875L409.844 226.719V260.625H414.719V266H399.344V260.625H403.719V224.031H399.219V218.562H411.969L433.594 257.469L433.844 255.969V224.031H428.531V218.625ZM478 260.625H481.938L478.188 249.875H459.969L456.312 260.625H461.188V266H445.812V260.625H449.938L464.688 218.625H473.906L488.625 260.625H493.375V266H478V260.625ZM461.75 244.688H476.375L469 223.5L461.75 244.688Z" fill="#536944"/>
<path d="M59.6765 230.848C59.1645 230.848 57.7565 230.763 55.4525 230.592C53.1485 230.421 50.6312 229.312 47.9005 227.264C47.1325 226.752 46.7485 226.197 46.7485 225.6C46.7485 225.088 46.9618 224.704 47.3885 224.448C47.7298 224.192 47.9432 224.064 48.0285 224.064C48.2845 224.064 48.7538 224.235 49.4365 224.576C50.9725 226.112 53.0205 226.88 55.5805 226.88C60.7858 226.88 66.0338 224.832 71.3245 220.736C76.2738 216.811 80.4125 212.245 83.7405 207.04C90.0552 197.568 94.9192 187.84 98.3325 177.856C101.746 167.957 104.818 157.419 107.549 146.24C108.743 141.376 110.066 136.341 111.517 131.136C112.797 126.357 113.949 121.749 114.973 117.312C118.045 103.573 122.013 90.688 126.877 78.656C122.269 80.448 116.338 83.392 109.085 87.488C101.831 91.4987 96.2845 95.1253 92.4445 98.368C90.9085 99.7333 89.8845 100.928 89.3725 101.952C88.9458 102.976 88.6472 103.915 88.4765 104.768C88.3912 105.621 88.0925 106.56 87.5805 107.584H86.8125C84.6792 107.584 83.5698 106.261 83.4845 103.616C83.4845 100.885 85.6178 97.5573 89.8845 93.632C95.1752 89.6213 101.191 86.1227 107.933 83.136C118.343 78.1867 126.493 73.2373 132.381 68.288C133.49 66.5813 135.879 64.1067 139.549 60.864C143.218 57.536 147.015 54.9333 150.941 53.056C152.477 52.3733 153.842 52.032 155.037 52.032C156.914 52.032 158.365 52.8427 159.389 54.464C159.303 56.5973 156.829 59.3707 151.965 62.784L149.405 64.832C146.077 68.16 142.663 74.2613 139.165 83.136C133.021 98.8373 127.986 115.008 124.061 131.648C118.941 153.067 113.138 171.2 106.653 186.048C96.9245 208.064 85.0205 222.229 70.9405 228.544C67.1005 230.08 63.3458 230.848 59.6765 230.848ZM151.369 142.4L156.105 138.304C164.979 131.477 169.886 124.139 170.825 116.288C171.081 115.691 171.208 114.581 171.208 112.96C171.208 111.595 170.697 110.357 169.673 109.248C169.161 108.651 168.478 108.352 167.625 108.352C167.369 108.352 166.814 108.48 165.961 108.736C165.193 108.907 163.87 110.528 161.993 113.6C159.006 118.379 156.659 122.987 154.953 127.424C153.331 131.776 152.137 136.768 151.369 142.4ZM132.68 207.04C133.448 207.04 134.344 206.827 135.368 206.4C138.696 204.779 141.342 201.792 143.305 197.44C144.158 195.307 144.627 193.045 144.713 190.656C144.713 188.011 144.243 185.237 143.305 182.336C142.195 183.36 141.001 184.341 139.721 185.28L137.16 187.2C131.187 192.491 128.2 197.227 128.2 201.408C128.2 203.627 128.968 205.291 130.504 206.4C131.102 206.827 131.827 207.04 132.68 207.04ZM134.216 209.856C130.12 209.856 127.304 208.576 125.768 206.016C125.086 204.907 124.744 203.669 124.744 202.304C124.744 200 125.598 197.355 127.304 194.368C130.376 189.589 134.003 185.877 138.184 183.232C139.806 182.208 141.214 181.141 142.409 180.032C142.153 178.923 141.641 177.173 140.873 174.784C137.459 165.397 135.752 156.267 135.752 147.392C135.752 145.429 135.838 143.467 136.008 141.504C138.142 125.035 144.542 113.515 155.208 106.944C159.219 104.64 162.846 103.488 166.089 103.488C169.161 103.488 171.465 104.555 173.001 106.688C174.025 108.053 174.537 109.973 174.537 112.448C174.537 119.787 171.593 126.827 165.705 133.568C160.755 139.285 155.891 143.253 151.113 145.472V147.136C151.113 154.304 152.009 160.363 153.801 165.312L155.849 171.072C164.211 165.184 172.574 156.523 180.937 145.088C181.534 144.32 182.089 143.936 182.601 143.936C183.283 143.936 183.625 144.405 183.625 145.344C183.625 147.221 180.254 151.872 173.513 159.296C169.075 164.075 165.065 167.915 161.481 170.816C159.347 172.352 157.769 173.675 156.745 174.784C157.086 176.149 157.257 177.643 157.257 179.264C157.257 187.456 154.185 194.965 148.041 201.792C143.774 206.485 139.166 209.173 134.216 209.856ZM185.823 175.168C188.127 174.315 190.9 171.371 194.143 166.336C197.385 161.301 200.415 155.883 203.231 150.08C206.985 142.059 208.863 136.555 208.863 133.568C208.863 131.349 208.308 129.088 207.199 126.784C206.516 125.675 205.876 125.12 205.279 125.12C204.767 125.12 204.084 125.632 203.231 126.656C202.804 127.253 201.524 129.685 199.391 133.952C195.551 141.717 192.607 148.757 190.559 155.072C187.401 164.373 185.823 170.816 185.823 174.4V175.168ZM183.263 181.696H182.623C178.185 179.904 175.582 176.491 174.814 171.456C174.558 169.749 174.43 168 174.43 166.208C174.43 162.624 175.113 158.272 176.478 153.152C177.758 147.947 179.721 142.699 182.367 137.408C185.012 132.032 187.529 128.149 189.919 125.76C191.711 123.968 193.801 122.56 196.191 121.536C197.641 120.853 199.049 120.512 200.415 120.512C201.439 120.512 202.463 120.683 203.487 121.024C208.009 122.56 210.612 125.248 211.295 129.088C211.551 130.027 211.849 130.837 212.191 131.52C213.129 131.349 214.281 130.197 215.647 128.064C216.671 126.784 217.695 125.589 218.719 124.48C219.828 123.371 221.023 122.816 222.303 122.816C226.228 122.987 228.191 124.48 228.191 127.296C228.191 129.173 227.593 131.307 226.399 133.696C224.265 139.072 222.26 145.856 220.383 154.048C219.188 159.083 218.591 163.221 218.591 166.464C218.591 169.877 219.444 171.584 221.151 171.584C225.332 171.584 229.983 167.275 235.103 158.656C237.065 155.413 239.54 150.976 242.527 145.344C243.295 144.149 244.063 143.552 244.831 143.552C245.513 143.552 245.854 144.021 245.854 144.96C245.854 145.472 245.727 146.197 245.471 147.136C242.057 156.523 237.236 164.416 231.007 170.816C227.081 174.997 223.071 177.088 218.975 177.088C215.903 177.088 213.343 175.765 211.295 173.12C209.247 170.475 208.223 166.464 208.223 161.088C208.223 154.773 209.033 149.568 210.655 145.472C209.631 147.093 208.351 149.312 206.815 152.128C204.596 156.224 202.079 160.619 199.263 165.312C192.607 176.235 187.273 181.696 183.263 181.696ZM258.173 191.808C263.037 191.808 267.346 187.456 271.101 178.752C272.978 174.485 273.959 170.859 274.045 167.872C273.021 168.725 271.869 169.621 270.589 170.56C260.263 177.813 255.101 183.872 255.101 188.736C255.101 190.784 256.125 191.808 258.173 191.808ZM260.477 125.76C261.586 125.333 265.426 121.024 271.997 112.832C277.97 105.408 281.81 100.373 283.517 97.728C293.757 81.6 298.877 70.5067 298.877 64.448C298.877 62.7413 298.279 61.888 297.085 61.888C294.951 61.888 290.727 65.5573 284.413 72.896C280.487 77.76 277.159 83.0507 274.429 88.768C273.49 90.6453 271.911 94.3147 269.693 99.776C267.559 105.152 265.511 110.485 263.549 115.776C261.586 120.981 260.562 124.309 260.477 125.76ZM261.885 196.672C256.509 196.672 252.882 194.795 251.005 191.04C250.578 190.016 250.365 188.949 250.365 187.84C250.365 185.707 251.431 183.147 253.565 180.16C255.698 177.173 258.599 174.187 262.269 171.2C266.962 167.531 270.546 165.056 273.021 163.776C276.093 162.24 277.629 155.328 277.629 143.04C277.629 140.395 277.202 139.072 276.349 139.072C275.325 139.072 274.002 139.669 272.381 140.864C265.213 146.24 258.642 155.669 252.669 169.152L251.517 172.224C250.237 177.088 248.487 179.52 246.269 179.52C242.087 179.52 239.996 174.443 239.996 164.288C239.996 161.984 240.167 159.083 240.508 155.584C240.85 152.085 241.234 149.099 241.66 146.624C243.282 137.408 246.055 127.723 249.981 117.568C253.906 107.328 258.173 98.1547 262.781 90.048C265.853 84.5867 269.906 78.8693 274.941 72.896C279.975 66.8373 285.223 62.4427 290.685 59.712C292.221 59.0293 293.885 58.688 295.677 58.688C296.53 58.688 297.853 58.8587 299.645 59.2C301.437 59.456 302.631 60.992 303.229 63.808V64.576C303.229 68.3307 301.522 73.408 298.109 79.808C294.695 86.208 290.727 92.6507 286.205 99.136C281.767 105.536 278.226 110.315 275.581 113.472C274.471 114.752 272.551 116.885 269.821 119.872C267.175 122.859 264.615 125.76 262.141 128.576C259.751 131.307 258.301 133.099 257.789 133.952C256.935 135.915 255.997 138.987 254.973 143.168C253.949 147.349 253.01 151.573 252.157 155.84C251.389 160.107 250.877 163.349 250.621 165.568C251.389 164.629 252.242 163.051 253.181 160.832C254.119 158.613 255.826 155.499 258.301 151.488C262.653 143.723 267.73 138.56 273.533 136C274.727 135.488 275.879 135.232 276.989 135.232C278.951 135.232 280.914 136.043 282.877 137.664C284.669 139.541 285.778 141.845 286.205 144.576C286.717 147.819 286.973 151.275 286.973 154.944C288.253 154.688 289.831 154.048 291.709 153.024C297.767 149.611 301.607 147.093 303.229 145.472C304.509 144.192 305.575 143.552 306.429 143.552C307.453 143.552 307.965 143.936 307.965 144.704C307.623 145.899 306.642 147.221 305.021 148.672C301.607 151.744 298.407 154.048 295.421 155.584C292.434 157.035 289.618 158.613 286.973 160.32L285.309 169.792C284.029 175.68 281.469 181.269 277.629 186.56C273.789 191.936 269.266 195.221 264.061 196.416C263.378 196.587 262.653 196.672 261.885 196.672ZM314.416 154.56C320.73 151.659 326.277 146.752 331.056 139.84C334.981 133.952 336.944 128.533 336.944 123.584C336.944 122.645 336.901 121.749 336.816 120.896C334 121.835 329.605 127.253 323.632 137.152C317.914 146.624 314.842 152.427 314.416 154.56ZM315.696 190.016C312.794 190.016 309.68 188.864 306.352 186.56C303.023 184.256 300.463 180.459 298.671 175.168C297.989 172.864 297.647 170.475 297.647 168C297.647 165.013 298.287 161.216 299.567 156.608C303.919 141.248 311.941 129.387 323.632 121.024C327.898 118.293 331.397 116.928 334.128 116.928C334.213 116.928 334.938 116.971 336.304 117.056C337.754 117.056 338.906 118.08 339.76 120.128C340.272 121.579 340.528 123.115 340.528 124.736C340.528 127.808 339.333 131.648 336.944 136.256C334.554 140.779 331.013 145.259 326.32 149.696C321.626 154.133 317.402 156.821 313.648 157.76C312.88 159.808 312.325 161.643 311.984 163.264C310.618 168.725 309.936 173.163 309.936 176.576C309.936 179.477 310.704 181.653 312.24 183.104C313.008 183.872 314.074 184.256 315.44 184.256C316.805 184.256 318.512 183.872 320.56 183.104C326.192 180.373 331.994 175.424 337.968 168.256C344.026 161.173 348.805 154.432 352.304 148.032C352.304 147.776 352.645 147.051 353.328 145.856C354.096 144.661 354.778 144.064 355.376 144.064C356.144 144.064 356.528 144.576 356.528 145.6C356.528 146.539 355.973 147.989 354.864 149.952C351.28 156.608 346.416 163.989 340.272 172.096C334.128 180.203 328.069 185.749 322.096 188.736C319.877 189.589 317.744 190.016 315.696 190.016ZM372.013 134.208C375.085 131.904 379.949 127.509 386.604 121.024C393.261 114.539 399.831 107.072 406.317 98.624C416.557 85.3973 421.677 74.6453 421.677 66.368C421.677 62.8693 420.695 61.12 418.733 61.12C418.05 61.12 416.813 61.504 415.021 62.272C413.229 63.04 409.687 67.008 404.397 74.176C398.679 82.0267 392.578 92.1387 386.093 104.512C377.986 119.787 373.293 129.685 372.013 134.208ZM430.253 134.848C432.983 132.8 437.293 128.917 443.181 123.2C449.069 117.483 454.871 110.869 460.589 103.36C469.719 91.6693 474.285 82.1547 474.285 74.816C474.285 71.6587 473.389 70.08 471.597 70.08C470.999 70.08 469.89 70.4213 468.269 71.104C466.733 71.7867 463.618 75.328 458.925 81.728C453.89 88.64 448.471 97.6 442.669 108.608C435.501 122.176 431.362 130.923 430.253 134.848ZM366.765 205.504C361.389 205.504 356.653 203.157 352.556 198.464C348.29 193.088 346.156 186.304 346.156 178.112C346.156 177.685 346.242 175.168 346.412 170.56C346.498 165.952 348.076 158.784 351.148 149.056C356.354 132.672 363.522 116.757 372.653 101.312C380.418 87.8293 389.165 76.4373 398.893 67.136C405.378 60.9067 411.351 57.792 416.812 57.792C420.823 57.792 423.255 59.2853 424.109 62.272C424.621 63.808 424.877 65.5147 424.877 67.392C424.877 69.5253 424.365 72.3413 423.34 75.84C422.402 79.3387 421.207 82.496 419.757 85.312C410.541 102.549 395.735 119.573 375.341 136.384C373.037 138.261 371.202 139.925 369.837 141.376C365.399 146.24 361.645 157.717 358.573 175.808C358.061 178.795 357.805 181.611 357.805 184.256C357.805 187.84 358.274 191.168 359.213 194.24C361.09 198.848 363.693 201.152 367.021 201.152C372.311 201.152 378.157 197.696 384.557 190.784C390.103 184.469 398.039 172.395 408.365 154.56C409.559 152.427 410.626 150.635 411.565 149.184C416.429 133.824 422.829 119.36 430.765 105.792C437.677 93.8453 445.442 83.7333 454.061 75.456C459.863 69.9947 465.154 67.264 469.933 67.264C473.517 67.264 475.693 68.544 476.461 71.104C476.887 72.5547 477.101 74.0907 477.101 75.712C477.101 77.5893 476.674 80.1067 475.821 83.264C474.967 86.336 473.901 89.1093 472.621 91.584C468.183 99.776 463.021 107.243 457.133 113.984C450.05 121.835 442.071 129.429 433.197 136.768C431.149 138.475 429.527 139.968 428.333 141.248C424.407 145.6 421.079 155.755 418.349 171.712C417.922 174.357 417.709 176.875 417.709 179.264C417.709 182.421 418.093 185.365 418.861 188.096C420.567 192.192 422.871 194.24 425.773 194.24C430.466 194.24 435.671 191.168 441.389 185.024C446.253 179.477 453.293 168.768 462.509 152.896C465.325 147.861 467.074 145.003 467.757 144.32C468.439 143.637 468.994 143.296 469.421 143.296C469.933 143.296 470.189 143.765 470.189 144.704C470.189 146.752 467.671 151.573 462.637 159.168C454.103 174.101 446.21 185.152 438.957 192.32C434.861 195.989 430.423 197.909 425.645 198.08C420.866 198.08 416.642 195.989 412.973 191.808C409.218 187.029 407.341 181.013 407.341 173.76C407.341 169.067 407.554 165.355 407.981 162.624C398.594 179.008 389.89 191.125 381.869 198.976C377.261 203.157 372.226 205.333 366.765 205.504ZM472.198 175.168C474.502 174.315 477.275 171.371 480.518 166.336C483.76 161.301 486.79 155.883 489.606 150.08C493.36 142.059 495.238 136.555 495.238 133.568C495.238 131.349 494.683 129.088 493.574 126.784C492.891 125.675 492.251 125.12 491.654 125.12C491.142 125.12 490.459 125.632 489.606 126.656C489.179 127.253 487.899 129.685 485.766 133.952C481.926 141.717 478.982 148.757 476.934 155.072C473.776 164.373 472.198 170.816 472.198 174.4V175.168ZM469.638 181.696H468.998C464.56 179.904 461.957 176.491 461.189 171.456C460.933 169.749 460.805 168 460.805 166.208C460.805 162.624 461.488 158.272 462.853 153.152C464.133 147.947 466.096 142.699 468.742 137.408C471.387 132.032 473.904 128.149 476.294 125.76C478.086 123.968 480.176 122.56 482.566 121.536C484.016 120.853 485.424 120.512 486.79 120.512C487.814 120.512 488.838 120.683 489.862 121.024C494.384 122.56 496.987 125.248 497.67 129.088C497.926 130.027 498.224 130.837 498.566 131.52C499.504 131.349 500.656 130.197 502.022 128.064C503.046 126.784 504.07 125.589 505.094 124.48C506.203 123.371 507.398 122.816 508.678 122.816C512.603 122.987 514.566 124.48 514.566 127.296C514.566 129.173 513.968 131.307 512.774 133.696C510.64 139.072 508.635 145.856 506.758 154.048C505.563 159.083 504.966 163.221 504.966 166.464C504.966 169.877 505.819 171.584 507.526 171.584C511.707 171.584 516.358 167.275 521.478 158.656C523.44 155.413 525.915 150.976 528.902 145.344C529.67 144.149 530.438 143.552 531.206 143.552C531.888 143.552 532.229 144.021 532.229 144.96C532.229 145.472 532.102 146.197 531.846 147.136C528.432 156.523 523.611 164.416 517.382 170.816C513.456 174.997 509.446 177.088 505.35 177.088C502.278 177.088 499.718 175.765 497.67 173.12C495.622 170.475 494.598 166.464 494.598 161.088C494.598 154.773 495.408 149.568 497.03 145.472C496.006 147.093 494.726 149.312 493.19 152.128C490.971 156.224 488.454 160.619 485.638 165.312C478.982 176.235 473.648 181.696 469.638 181.696Z" fill="#E17A85"/>
<path d="M528.671 154.342C528.224 153.447 527.776 152.553 527.329 151.658C527.499 151.576 527.801 151.455 528.233 151.522C528.667 151.58 529.07 151.904 529.225 152.153C529.534 152.668 529.46 152.843 529.479 152.96C529.475 153.172 529.459 153.17 529.462 153.168C529.476 153.105 529.476 153.106 529.487 153.063C529.506 152.989 529.535 152.886 529.572 152.762C529.664 152.463 529.72 152.288 529.794 152.062C529.867 151.838 529.951 151.587 530.046 151.309C530.138 151.041 530.197 150.868 530.28 150.627C530.627 149.632 530.945 148.742 531.311 147.733C544.575 113.433 557.256 78.4342 577.381 47.4698C578.547 45.9373 579.993 44.2112 581.5 43C579.962 44.1721 578.471 45.8715 577.263 47.3775C556.324 77.9448 542.8 112.618 528.644 146.728C528.251 147.737 527.907 148.627 527.529 149.634C527.438 149.877 527.372 150.052 527.271 150.326C527.167 150.61 527.074 150.87 526.99 151.105C526.906 151.343 526.841 151.522 526.728 151.868C526.681 152.014 526.64 152.144 526.605 152.263C526.597 152.292 526.588 152.321 526.58 152.35C526.576 152.365 526.573 152.379 526.569 152.393C526.561 152.424 526.546 152.485 526.535 152.533C526.514 152.643 526.486 152.722 526.482 152.984C526.502 153.126 526.431 153.318 526.747 153.842C526.905 154.096 527.311 154.423 527.751 154.482C528.187 154.549 528.495 154.427 528.671 154.342Z" fill="#E17A85"/>
</svg>
