<svg width="736" height="248" viewBox="0 0 736 248" fill="none" xmlns="http://www.w3.org/2000/svg">
<path d="M204.125 161.944C204.829 162.136 205.693 162.232 206.717 162.232C207.421 162.232 208.509 162.168 209.981 162.04C211.517 161.912 212.637 161.848 213.341 161.848C216.477 161.848 218.461 162.872 219.293 164.92C221.085 172.856 224.701 184.376 230.141 199.48C235.645 214.52 239.293 226.04 241.085 234.04L239.357 234.808C238.653 234.808 236.157 234.84 231.869 234.904C228.669 234.968 226.077 234.968 224.093 234.904C221.341 234.84 218.941 234.648 216.893 234.328C215.933 231.896 215.005 227.64 214.109 221.56C213.277 215.864 212.157 211.608 210.749 208.792C209.277 211.672 207.453 216.056 205.277 221.944C203.101 227.832 201.309 232.12 199.901 234.808C199.261 234.68 198.493 234.616 197.597 234.616C196.893 234.616 195.741 234.68 194.141 234.808C192.605 234.936 191.453 235 190.685 235C186.205 235 184.125 232.952 184.445 228.856C183.549 227.192 182.301 223.928 180.701 219.064C179.357 214.84 178.013 211.896 176.669 210.232C174.109 219.704 172.477 227.736 171.773 234.328C168.061 234.712 164.221 234.904 160.253 234.904C156.285 234.904 152.445 234.712 148.733 234.328C150.077 226.456 152.765 214.744 156.797 199.192C160.829 183.64 163.517 171.832 164.861 163.768L166.013 162.424L180.701 162.904C182.301 168.088 185.917 178.36 191.549 193.72L193.085 193.144C194.301 190.136 196.093 184.92 198.461 177.496C200.637 170.776 202.525 165.592 204.125 161.944ZM193.661 218.392L173.885 172.984C170.685 184.824 165.949 202.616 159.677 226.36H162.269C162.461 225.528 164.381 218.264 168.029 204.568C170.333 195.864 171.965 188.504 172.925 182.488L174.557 179.416C174.813 180.056 178.045 187.352 184.253 201.304C188.093 210.072 191.037 217.464 193.085 223.48L194.237 223.768C198.461 213.144 203.197 199.256 208.445 182.104L209.789 179.896C214.717 193.784 220.189 209.24 226.205 226.264C228.317 226.776 229.213 226.744 228.893 226.168C228.829 226.104 228.733 226.008 228.605 225.88C227.453 223.832 221.117 206.392 209.597 173.56L193.661 218.392ZM301.048 162.136C302.008 162.712 306.616 174.232 314.872 196.696C323.192 219.096 327.48 231.704 327.736 234.52H304.216C302.232 232.472 300.76 229.08 299.8 224.344C297.112 224.792 292.952 224.984 287.32 224.92C279.96 224.792 276.184 224.728 275.992 224.728C275.352 226.712 274.712 228.728 274.072 230.776C273.112 233.528 272.28 234.808 271.576 234.616L250.456 234.328C250.328 234.2 250.264 233.976 250.264 233.656C250.264 231.096 253.88 220.92 261.112 203.128C270.648 179.512 276.088 165.816 277.432 162.04C279.8 162.296 284.472 162.36 291.448 162.232C297.848 162.168 301.048 162.136 301.048 162.136ZM293.368 171.832C292.536 171.576 291.32 171.448 289.72 171.448C288.12 171.384 286.904 171.192 286.072 170.872C280.376 183.928 276.44 193.016 274.264 198.136C269.976 208.312 266.36 217.432 263.416 225.496C264.184 225.368 264.568 225.656 264.568 226.36C264.632 226.296 264.76 225.976 264.952 225.4C266.872 220.536 268.344 217.56 269.368 216.472L308.536 216.184C309.24 217.272 309.88 218.328 310.456 219.352C311.736 221.784 312.504 223.832 312.76 225.496C313.528 226.008 314.232 225.816 314.872 224.92C313.72 221.848 306.552 204.152 293.368 171.832ZM291.544 173.464L307.864 214.264H271C273.816 206.328 279.256 193.08 287.32 174.52C287.64 173.752 288.248 173.368 289.144 173.368C290.872 173.432 291.672 173.464 291.544 173.464ZM295.576 208.312C294.616 202.296 292.44 197.304 289.048 193.336C287.768 195.832 286.488 198.328 285.208 200.824C283.736 203.832 283 206.488 283 208.792C283.64 208.664 284.312 208.6 285.016 208.6C285.848 208.6 286.968 208.696 288.376 208.888C289.784 209.08 290.808 209.176 291.448 209.176C292.92 209.176 294.296 208.888 295.576 208.312ZM337.095 164.344C338.759 164.408 340.871 164.376 343.431 164.248C345.991 164.056 348.999 163.736 352.455 163.288C356.103 162.84 359.239 162.52 361.863 162.328C364.487 162.072 366.631 161.944 368.295 161.944C376.935 161.944 383.719 163.992 388.647 168.088C394.343 172.824 397.191 179.192 397.191 187.192C397.191 189.176 396.999 191.16 396.615 193.144C395.015 196.024 390.791 200.6 383.943 206.872C384.583 208.344 385.575 210.2 386.919 212.44C388.327 214.616 390.055 217.176 392.103 220.12C396.071 225.56 398.695 230.04 399.975 233.56C397.351 234.52 394.247 235 390.663 235C389.959 235 389.127 235 388.167 235C387.271 234.936 386.247 234.872 385.095 234.808C383.623 234.68 382.407 234.584 381.447 234.52C380.551 234.456 379.943 234.424 379.623 234.424C378.983 233.72 377.927 232.376 376.455 230.392C374.983 228.408 373.063 225.784 370.695 222.52C367.111 217.656 364.039 214.008 361.479 211.576C360.391 211.448 359.815 211.896 359.751 212.92C359.623 214.392 359.495 215.192 359.367 215.32L358.407 234.04H335.943L334.983 232.792C335.431 228.248 335.751 223.256 335.943 217.816C336.199 212.376 336.327 206.392 336.327 199.864C336.327 198.2 336.327 195.896 336.327 192.952C336.327 190.008 336.295 186.392 336.231 182.104C336.167 178.456 336.103 175.192 336.039 172.312C336.039 169.432 336.071 166.968 336.135 164.92L337.095 164.344ZM384.423 178.648C381.671 173.976 377.799 171.16 372.807 170.2C369.799 169.624 366.599 169.336 363.207 169.336C358.471 169.336 352.999 169.912 346.791 171.064L346.503 223.864C346.503 224.952 347.015 225.496 348.039 225.496C348.295 225.496 348.583 225.336 348.903 225.016V205.336C353.319 205.272 359.879 205.08 368.583 204.76C369.799 206.616 371.015 208.504 372.231 210.424C373.447 212.28 374.695 214.136 375.975 215.992C378.983 220.6 381.799 224.152 384.423 226.648C384.231 226.648 384.199 226.68 384.327 226.744C384.455 226.744 384.775 226.776 385.287 226.84C385.735 226.84 385.991 226.712 386.055 226.456L377.991 215.224C376.391 213.048 374.983 211 373.767 209.08C372.615 207.16 371.591 205.368 370.695 203.704C378.119 201.208 382.823 197.528 384.807 192.664C385.767 190.36 386.247 188.024 386.247 185.656C386.247 182.968 385.639 180.632 384.423 178.648ZM349.479 172.792C354.919 172.472 358.855 172.248 361.287 172.12C363.719 171.928 364.679 171.832 364.167 171.832C373.319 171.832 379.367 174.648 382.311 180.28C383.207 182.776 383.655 185.048 383.655 187.096C383.655 189.656 383.047 191.832 381.831 193.624C378.759 198.168 373.959 201.08 367.431 202.36C366.215 202.616 364.167 202.808 361.287 202.936C358.471 203.064 354.823 203.192 350.343 203.32L348.903 202.072L349.479 172.792ZM374.247 183.448C372.135 179.288 368.711 177.208 363.975 177.208C362.439 177.208 360.967 177.56 359.559 178.264V187.384C359.559 190.968 360.039 193.912 360.999 196.216C362.215 196.024 363.495 195.8 364.839 195.544C366.247 195.288 367.335 194.776 368.103 194.008C372.455 191.576 374.631 188.76 374.631 185.56C374.631 184.728 374.503 184.024 374.247 183.448ZM405.028 162.904C410.404 162.584 414.596 162.328 417.604 162.136C420.612 161.944 422.5 161.848 423.268 161.848C424.676 161.848 426.02 161.88 427.3 161.944C428.58 162.008 429.86 162.104 431.14 162.232C431.14 167.032 430.948 174.808 430.564 185.56C430.436 190.744 430.308 195.32 430.18 199.288C430.116 203.192 430.084 206.488 430.084 209.176C430.084 218.52 430.468 226.648 431.236 233.56C430.596 233.624 429.572 233.72 428.164 233.848C426.756 233.976 424.932 234.168 422.692 234.424C419.044 234.808 416.1 235 413.859 235C410.595 235 407.812 234.616 405.508 233.848C405.956 224.312 406.276 216.376 406.468 210.04C406.66 203.64 406.756 198.776 406.756 195.448C406.756 184.312 406.18 173.464 405.028 162.904ZM420.1 175.576C420.228 175.064 420.292 174.648 420.292 174.328C420.292 172.408 419.684 171.448 418.468 171.448C418.084 171.448 417.668 171.576 417.22 171.832V224.632H419.428L420.1 175.576ZM441.208 162.136C442.808 161.944 444.536 161.848 446.392 161.848C447.992 161.848 450.2 161.944 453.016 162.136C454.808 162.264 456.248 162.36 457.336 162.424C458.488 162.488 459.32 162.552 459.832 162.616C462.648 167.224 467 172.728 472.888 179.128C477.176 183.8 480.472 187.416 482.776 189.976C485.144 192.472 486.552 193.976 487 194.488H488.248C488.824 191.608 489.112 188.344 489.112 184.696C489.112 183.608 489.048 182.232 488.92 180.568C488.856 178.904 488.76 176.952 488.632 174.712C488.504 172.472 488.408 170.52 488.344 168.856C488.28 167.192 488.248 165.816 488.248 164.728C490.808 164.408 493.944 164.024 497.656 163.576C501.432 163.064 505.848 162.488 510.904 161.848L511.576 163.48C511.128 168.216 510.808 173.464 510.616 179.224C510.424 184.92 510.328 191.16 510.328 197.944C510.328 204.536 510.52 216.696 510.904 234.424C508.088 234.808 504.952 235 501.496 235C498.104 235 494.872 234.808 491.8 234.424C489.624 231.672 487.48 228.92 485.368 226.168C483.256 223.416 481.112 220.632 478.936 217.816C476.376 214.552 473.912 211.704 471.544 209.272C469.176 206.84 466.872 204.76 464.632 203.032L464.056 234.424H442.36C442.104 233.848 441.976 233.016 441.976 231.928C441.976 231.416 442.072 230.136 442.264 228.088C442.456 226.616 442.488 225.368 442.36 224.344C442.552 203.16 442.168 182.424 441.208 162.136ZM498.136 220.024C495.768 217.784 492.728 214.68 489.016 210.712C485.368 206.68 480.952 201.688 475.768 195.736C470.968 190.232 466.584 185.432 462.616 181.336C458.712 177.24 455.192 173.816 452.056 171.064C451.992 172.28 451.96 173.56 451.96 174.904C451.96 176.184 451.96 177.56 451.96 179.032C451.96 183.448 452.056 190.104 452.248 199C452.376 203.48 452.472 207.384 452.536 210.712C452.6 213.976 452.632 216.632 452.632 218.68C452.632 220.088 452.632 221.432 452.632 222.712C452.632 223.928 452.6 225.144 452.536 226.36C452.728 226.36 452.984 226.392 453.304 226.456C453.624 226.584 453.88 226.584 454.072 226.456C454.392 226.328 454.584 226.168 454.648 225.976V177.496C458.488 181.528 462.264 185.528 465.976 189.496C469.688 193.464 473.464 197.464 477.304 201.496C481.4 205.976 485.24 210.296 488.824 214.456C492.408 218.552 495.768 222.52 498.904 226.36H500.728V171.544C499.704 171.352 499 171.736 498.616 172.696L498.136 220.024ZM573.205 162.136C574.165 162.712 578.773 174.232 587.029 196.696C595.349 219.096 599.637 231.704 599.893 234.52H576.373C574.389 232.472 572.917 229.08 571.957 224.344C569.269 224.792 565.109 224.984 559.477 224.92C552.117 224.792 548.341 224.728 548.149 224.728C547.509 226.712 546.869 228.728 546.229 230.776C545.269 233.528 544.437 234.808 543.733 234.616L522.613 234.328C522.485 234.2 522.421 233.976 522.421 233.656C522.421 231.096 526.037 220.92 533.269 203.128C542.805 179.512 548.245 165.816 549.589 162.04C551.957 162.296 556.629 162.36 563.605 162.232C570.005 162.168 573.205 162.136 573.205 162.136ZM565.525 171.832C564.693 171.576 563.477 171.448 561.877 171.448C560.277 171.384 559.061 171.192 558.229 170.872C552.533 183.928 548.597 193.016 546.421 198.136C542.133 208.312 538.517 217.432 535.573 225.496C536.341 225.368 536.725 225.656 536.725 226.36C536.789 226.296 536.917 225.976 537.109 225.4C539.029 220.536 540.501 217.56 541.525 216.472L580.693 216.184C581.397 217.272 582.037 218.328 582.613 219.352C583.893 221.784 584.661 223.832 584.917 225.496C585.685 226.008 586.389 225.816 587.029 224.92C585.877 221.848 578.709 204.152 565.525 171.832ZM563.701 173.464L580.021 214.264H543.156C545.973 206.328 551.413 193.08 559.477 174.52C559.797 173.752 560.405 173.368 561.301 173.368C563.029 173.432 563.829 173.464 563.701 173.464ZM567.733 208.312C566.773 202.296 564.597 197.304 561.205 193.336C559.925 195.832 558.645 198.328 557.365 200.824C555.893 203.832 555.157 206.488 555.157 208.792C555.797 208.664 556.469 208.6 557.173 208.6C558.005 208.6 559.125 208.696 560.533 208.888C561.941 209.08 562.965 209.176 563.605 209.176C565.077 209.176 566.453 208.888 567.733 208.312Z" fill="#68A200"/>
<path d="M44.4325 49.872C51.6005 49.4453 57.1898 49.104 61.2005 48.848C65.2112 48.592 67.7285 48.464 68.7525 48.464C70.6298 48.464 72.4218 48.5067 74.1285 48.592C75.8352 48.6773 77.5418 48.8053 79.2485 48.976C79.2485 55.376 78.9925 65.744 78.4805 80.08C78.3098 86.992 78.1392 93.0933 77.9685 98.384C77.8832 103.589 77.8405 107.984 77.8405 111.568C77.8405 124.027 78.3525 134.864 79.3765 144.08C78.5232 144.165 77.1578 144.293 75.2805 144.464C73.4032 144.635 70.9712 144.891 67.9845 145.232C63.1205 145.744 59.1952 146 56.2085 146C51.8565 146 48.1445 145.488 45.0725 144.464C45.6698 131.749 46.0965 121.168 46.3525 112.72C46.6085 104.187 46.7365 97.7013 46.7365 93.264C46.7365 78.416 45.9685 63.952 44.4325 49.872ZM64.5285 66.768C64.6992 66.0853 64.7845 65.5307 64.7845 65.104C64.7845 62.544 63.9738 61.264 62.3525 61.264C61.8405 61.264 61.2858 61.4347 60.6885 61.776V132.176H63.6325L64.5285 66.768ZM144.77 52.56V55.376C136.236 61.6053 130.775 69.456 128.386 78.928C128.727 83.4507 131.244 89.936 135.938 98.384C140.546 106.491 142.85 112.805 142.85 117.328C142.85 120.485 142.039 123.643 140.418 126.8C134.7 137.808 128.514 145.061 121.858 148.56C116.908 147.109 112.002 145.659 107.138 144.208C101.335 142.501 96.6415 140.581 93.0575 138.448C97.1535 134.096 100.055 130.725 101.762 128.336C104.578 124.155 106.156 120.144 106.498 116.304C106.924 111.269 104.62 104.997 99.5855 97.488C94.6362 89.8933 92.1615 84.0907 92.1615 80.08C92.1615 77.4347 92.8015 74.7893 94.0815 72.144C97.1535 63.5253 103.767 54.864 113.922 46.16L144.77 52.56ZM122.626 59.728C120.407 59.472 118.572 60.496 117.122 62.8C115.074 66.0427 113.708 67.92 113.026 68.432C110.551 71.9307 109.314 75.6427 109.314 79.568C109.314 83.92 111.618 90.32 116.226 98.768C120.834 107.131 123.138 113.403 123.138 117.584C123.138 123.131 120.322 128.336 114.69 133.2L115.97 134.48C123.223 130.213 126.85 124.923 126.85 118.608C126.85 114.341 124.674 107.813 120.322 99.024C115.714 89.8933 113.282 83.1947 113.026 78.928C113.111 76.1973 114.604 72.8693 117.506 68.944C120.578 64.6773 122.284 61.6053 122.626 59.728ZM223.794 48.848C225.074 49.616 231.218 64.976 242.226 94.928C253.319 124.795 259.036 141.605 259.378 145.36H228.018C225.372 142.629 223.41 138.107 222.13 131.792C218.546 132.389 212.999 132.645 205.49 132.56C195.676 132.389 190.642 132.304 190.386 132.304C189.532 134.949 188.679 137.637 187.826 140.368C186.546 144.037 185.436 145.744 184.498 145.488L156.338 145.104C156.167 144.933 156.082 144.635 156.082 144.208C156.082 140.795 160.903 127.227 170.546 103.504C183.26 72.016 190.514 53.7547 192.306 48.72C195.463 49.0613 201.692 49.1467 210.994 48.976C219.527 48.8907 223.794 48.848 223.794 48.848ZM213.554 61.776C212.444 61.4347 210.823 61.264 208.69 61.264C206.556 61.1787 204.935 60.9227 203.826 60.496C196.231 77.904 190.983 90.0213 188.082 96.848C182.364 110.416 177.543 122.576 173.618 133.328C174.642 133.157 175.154 133.541 175.154 134.48C175.239 134.395 175.41 133.968 175.666 133.2C178.226 126.715 180.188 122.747 181.554 121.296L233.778 120.912C234.716 122.363 235.57 123.771 236.338 125.136C238.044 128.379 239.068 131.109 239.41 133.328C240.434 134.011 241.372 133.755 242.226 132.56C240.69 128.464 231.132 104.869 213.554 61.776ZM211.122 63.952L232.882 118.352H183.729C187.484 107.771 194.738 90.1067 205.49 65.36C205.916 64.336 206.727 63.824 207.922 63.824C210.226 63.9093 211.292 63.952 211.122 63.952ZM216.498 110.416C215.218 102.395 212.316 95.7387 207.794 90.448C206.087 93.776 204.38 97.104 202.674 100.432C200.711 104.443 199.73 107.984 199.73 111.056C200.583 110.885 201.479 110.8 202.418 110.8C203.527 110.8 205.02 110.928 206.898 111.184C208.775 111.44 210.14 111.568 210.994 111.568C212.956 111.568 214.791 111.184 216.498 110.416ZM271.088 48.848C274.33 49.5307 278.085 49.872 282.352 49.872C285.338 49.872 289.904 49.6587 296.048 49.232C302.277 48.72 306.885 48.464 309.872 48.464C323.525 48.464 333.168 52.688 338.8 61.136C341.189 63.7813 343.621 66.4267 346.096 69.072C348.741 72.3147 350.064 75.344 350.064 78.16C350.064 79.952 349.552 81.7867 348.528 83.664L336.624 99.792C337.221 100.731 340.165 104.229 345.456 110.288C349.296 114.555 351.216 118.437 351.216 121.936C351.216 123.643 350.789 125.435 349.936 127.312C346.693 134.565 341.957 139.728 335.728 142.8C330.608 145.275 324.037 146.512 316.016 146.512C312.176 146.512 306.288 146.128 298.352 145.36C290.416 144.592 284.528 144.208 280.688 144.208C277.018 144.208 273.69 144.464 270.704 144.976L268.784 142.16L270.064 49.232L271.088 48.848ZM321.008 61.136C313.157 59.2587 305.946 58.32 299.376 58.32C293.914 58.32 288.666 58.96 283.632 60.24V133.072C286.021 133.072 289.562 133.2 294.256 133.456C299.034 133.627 302.576 133.712 304.88 133.712C312.901 133.712 319.557 132.773 324.848 130.896C327.237 130.043 329.157 128.549 330.608 126.416C332.144 124.283 332.997 121.979 333.168 119.504C332.314 112.677 326.682 105.253 316.272 97.232C323.354 95.0987 328.986 90.2773 333.168 82.768C333.424 81.744 333.552 80.72 333.552 79.696C333.552 76.5387 331.973 73.2107 328.816 69.712C326.256 66.896 323.653 64.0373 321.008 61.136ZM287.6 61.776C289.05 62.032 290.714 62.16 292.592 62.16C294.213 62.16 296.645 62.032 299.888 61.776C303.13 61.52 305.52 61.392 307.056 61.392C314.053 61.392 319.173 63.3973 322.416 67.408C324.122 69.3707 325.786 71.376 327.408 73.424C329.2 75.8133 330.096 77.9893 330.096 79.952C330.096 80.8907 329.882 81.8293 329.456 82.768C326.725 88.3147 322.544 92.4107 316.912 95.056C311.706 95.568 306.672 95.824 301.808 95.824C296.858 95.824 291.738 95.568 286.448 95.056L287.6 61.776ZM286.96 98.512C298.906 98.768 306.672 99.28 310.256 100.048C319.216 102.096 325.189 106.747 328.176 114C329.2 116.56 329.712 118.565 329.712 120.016C329.712 121.637 329.2 122.96 328.176 123.984C323.397 128.592 316.314 130.896 306.928 130.896C304.197 130.896 300.698 130.725 296.432 130.384C290.885 129.872 287.557 129.573 286.448 129.488L286.96 98.512ZM303.728 70.608C302.704 70.608 301.637 70.6933 300.528 70.864C299.333 75.216 298.736 78.3733 298.736 80.336C298.736 82.8107 299.333 84.8587 300.528 86.48C302.576 86.5653 304.069 86.608 305.008 86.608C310.469 86.608 314.224 84.9013 316.272 81.488C316.613 78.5013 316.357 76.368 315.504 75.088C313.541 72.1013 309.616 70.608 303.728 70.608ZM316.272 114.768C312.517 108.88 307.056 106.277 299.888 106.96C299.12 109.008 298.736 111.44 298.736 114.256C298.736 116.987 299.12 119.461 299.888 121.68C300.57 121.851 301.296 121.936 302.064 121.936C303.344 121.936 305.264 121.552 307.824 120.784C310.128 120.101 312.005 119.803 313.456 119.888C315.76 118.523 316.912 117.371 316.912 116.432C316.912 115.835 316.698 115.28 316.272 114.768ZM359.665 50.64C366.662 49.9573 377.67 49.6587 392.689 49.744C407.11 49.744 418.118 49.3173 425.713 48.464C429.467 61.008 431.558 70.8213 431.985 77.904C417.649 75.856 405.489 74.832 395.505 74.832C393.115 74.832 390.726 74.8747 388.337 74.96C387.142 75.8133 386.545 77.008 386.545 78.544C386.545 79.1413 386.673 80.208 386.929 81.744C387.185 83.28 387.27 84.432 387.185 85.2C395.889 85.712 402.075 85.968 405.745 85.968C411.547 85.968 416.582 85.584 420.849 84.816C421.105 87.0347 422.214 90.576 424.177 95.44C425.883 99.8773 426.737 103.376 426.737 105.936C426.737 107.387 426.566 108.752 426.225 110.032H388.337C387.057 112.08 386.843 116.091 387.697 122.064C392.475 122.747 397.681 123.088 403.313 123.088C406.641 123.088 411.163 122.96 416.881 122.704C423.622 122.363 428.273 122.149 430.833 122.064C431.345 123.173 431.601 124.411 431.601 125.776C431.601 127.397 431.089 129.659 430.065 132.56C428.785 135.803 428.059 138.064 427.889 139.344L425.713 146H359.665C359.238 129.616 359.025 113.744 359.025 98.384C359.025 83.024 359.238 67.1093 359.665 50.64ZM417.009 63.44C417.435 63.184 417.649 62.928 417.649 62.672C417.649 62.416 417.435 62.032 417.009 61.52C416.667 61.008 416.454 60.6667 416.369 60.496L371.825 60.368C371.825 62.2453 371.953 75.472 372.208 100.048C372.294 116.517 372.635 128.891 373.233 137.168C380.315 137.509 387.611 137.68 395.121 137.68C402.715 137.68 410.011 137.509 417.009 137.168C417.435 135.973 417.009 134.779 415.729 133.584C409.073 133.925 402.545 134.096 396.145 134.096C389.745 134.096 383.131 133.925 376.305 133.584C375.537 119.248 375.537 107.856 376.305 99.408C380.23 99.152 384.411 98.9813 388.849 98.896C391.75 98.896 395.803 98.9387 401.009 99.024C406.982 99.1093 411.377 99.152 414.193 99.152C414.363 98.4693 413.937 97.616 412.913 96.592H376.305C375.366 87.4613 374.897 79.6533 374.897 73.168C374.897 68.816 375.153 65.5733 375.665 63.44H417.009ZM473.448 49.744V118.48C476.178 119.248 479.208 119.632 482.536 119.632C485.181 119.632 489.064 119.291 494.184 118.608C499.304 117.925 503.101 117.541 505.576 117.456C504.978 120.784 503.4 125.392 500.84 131.28C498.024 137.765 496.232 142.544 495.464 145.616L439.911 146L439.016 143.824C440.552 132.304 441.32 119.035 441.32 104.016C441.32 90.7893 440.552 72.6987 439.016 49.744L440.552 48.464L473.448 49.744ZM458.856 62.032H455.272L454.376 133.84L486.376 134.48C487.058 134.48 487.784 134.053 488.552 133.2C489.405 132.261 489.661 131.493 489.32 130.896C487.272 130.725 484.285 130.725 480.36 130.896C475.154 131.152 471.784 131.28 470.248 131.28C465.981 131.28 462.482 130.939 459.752 130.256C459.325 123.515 459.282 112.123 459.624 96.08C459.88 81.488 459.624 70.1387 458.856 62.032ZM546.573 49.744V118.48C549.303 119.248 552.333 119.632 555.661 119.632C558.306 119.632 562.189 119.291 567.309 118.608C572.429 117.925 576.226 117.541 578.701 117.456C578.103 120.784 576.525 125.392 573.965 131.28C571.149 137.765 569.357 142.544 568.589 145.616L513.036 146L512.141 143.824C513.677 132.304 514.445 119.035 514.445 104.016C514.445 90.7893 513.677 72.6987 512.141 49.744L513.677 48.464L546.573 49.744ZM531.981 62.032H528.397L527.501 133.84L559.501 134.48C560.183 134.48 560.909 134.053 561.677 133.2C562.53 132.261 562.786 131.493 562.445 130.896C560.397 130.725 557.41 130.725 553.485 130.896C548.279 131.152 544.909 131.28 543.373 131.28C539.106 131.28 535.607 130.939 532.877 130.256C532.45 123.515 532.407 112.123 532.749 96.08C533.005 81.488 532.749 70.1387 531.981 62.032ZM655.794 48.848C657.074 49.616 663.218 64.976 674.226 94.928C685.319 124.795 691.036 141.605 691.378 145.36H660.018C657.372 142.629 655.41 138.107 654.13 131.792C650.546 132.389 644.999 132.645 637.49 132.56C627.676 132.389 622.642 132.304 622.386 132.304C621.532 134.949 620.679 137.637 619.826 140.368C618.546 144.037 617.436 145.744 616.498 145.488L588.338 145.104C588.167 144.933 588.082 144.635 588.082 144.208C588.082 140.795 592.903 127.227 602.546 103.504C615.26 72.016 622.514 53.7547 624.306 48.72C627.463 49.0613 633.692 49.1467 642.994 48.976C651.527 48.8907 655.794 48.848 655.794 48.848ZM645.554 61.776C644.444 61.4347 642.823 61.264 640.69 61.264C638.556 61.1787 636.935 60.9227 635.826 60.496C628.231 77.904 622.983 90.0213 620.082 96.848C614.364 110.416 609.543 122.576 605.618 133.328C606.642 133.157 607.154 133.541 607.154 134.48C607.239 134.395 607.41 133.968 607.666 133.2C610.226 126.715 612.188 122.747 613.554 121.296L665.778 120.912C666.716 122.363 667.57 123.771 668.338 125.136C670.044 128.379 671.068 131.109 671.41 133.328C672.434 134.011 673.372 133.755 674.226 132.56C672.69 128.464 663.132 104.869 645.554 61.776ZM643.122 63.952L664.882 118.352H615.729C619.484 107.771 626.738 90.1067 637.49 65.36C637.916 64.336 638.727 63.824 639.922 63.824C642.226 63.9093 643.292 63.952 643.122 63.952ZM648.498 110.416C647.218 102.395 644.316 95.7387 639.794 90.448C638.087 93.776 636.38 97.104 634.674 100.432C632.711 104.443 631.73 107.984 631.73 111.056C632.583 110.885 633.479 110.8 634.418 110.8C635.527 110.8 637.02 110.928 638.898 111.184C640.775 111.44 642.14 111.568 642.994 111.568C644.956 111.568 646.791 111.184 648.498 110.416Z" fill="#FE6D7C"/>
</svg>
